<svg width="18" height="18" viewBox="0 0 18 18" fill="none" xmlns="http://www.w3.org/2000/svg">
<rect x="0.511797" y="1.01402" width="16.1803" height="16.1803" rx="5.39344" stroke="#E0E0E0" stroke-width="0.980626"/>
<path d="M10.3675 5.89503L11.3195 6.84652M10.9797 5.0568L8.40567 7.63082C8.27267 7.76363 8.18197 7.93284 8.14499 8.11712L7.90723 9.30728L9.09738 9.06907C9.28166 9.03221 9.45065 8.94187 9.58369 8.80883L12.1577 6.23481C12.2351 6.15746 12.2964 6.06564 12.3383 5.96457C12.3801 5.86351 12.4017 5.75519 12.4017 5.6458C12.4017 5.53642 12.3801 5.4281 12.3383 5.32704C12.2964 5.22597 12.2351 5.13415 12.1577 5.0568C12.0804 4.97945 11.9885 4.91809 11.8875 4.87623C11.7864 4.83437 11.6781 4.81282 11.5687 4.81282C11.4593 4.81282 11.351 4.83437 11.2499 4.87623C11.1489 4.91809 11.057 4.97945 10.9797 5.0568V5.0568Z" stroke="#2F80ED" stroke-width="0.898907" stroke-linecap="round" stroke-linejoin="round"/>
<path d="M11.5025 10.207V11.5554C11.5025 11.7938 11.4078 12.0224 11.2393 12.191C11.0707 12.3596 10.842 12.4543 10.6036 12.4543H5.65965C5.42124 12.4543 5.1926 12.3596 5.02403 12.191C4.85545 12.0224 4.76074 11.7938 4.76074 11.5554V6.61139C4.76074 6.37298 4.85545 6.14434 5.02403 5.97576C5.1926 5.80718 5.42124 5.71248 5.65965 5.71248H7.00801" stroke="#2F80ED" stroke-width="0.898907" stroke-linecap="round" stroke-linejoin="round"/>
</svg>
