<svg width="18" height="21" viewBox="0 0 18 21" fill="none" xmlns="http://www.w3.org/2000/svg">
<path d="M9.19385 6.30443C8.39821 6.30443 7.63515 6.6205 7.07255 7.1831C6.50994 7.74571 6.19388 8.50877 6.19388 9.30441C6.19388 10.1001 6.50994 10.8631 7.07255 11.4257C7.63515 11.9883 8.39821 12.3044 9.19385 12.3044C9.9895 12.3044 10.7526 11.9883 11.3152 11.4257C11.8778 10.8631 12.1938 10.1001 12.1938 9.30441C12.1938 8.50877 11.8778 7.74571 11.3152 7.1831C10.7526 6.6205 9.9895 6.30443 9.19385 6.30443ZM7.44387 9.30441C7.44387 8.84028 7.62824 8.39517 7.95643 8.06698C8.28461 7.73879 8.72973 7.55442 9.19385 7.55442C9.65798 7.55442 10.1031 7.73879 10.4313 8.06698C10.7595 8.39517 10.9438 8.84028 10.9438 9.30441C10.9438 9.76853 10.7595 10.2137 10.4313 10.5418C10.1031 10.87 9.65798 11.0544 9.19385 11.0544C8.72973 11.0544 8.28461 10.87 7.95643 10.5418C7.62824 10.2137 7.44387 9.76853 7.44387 9.30441ZM15.6913 14.5544L10.6473 19.9093C10.4604 20.1079 10.2347 20.2661 9.98435 20.3742C9.73396 20.4824 9.4641 20.5382 9.19135 20.5382C8.91861 20.5382 8.64875 20.4824 8.39836 20.3742C8.14797 20.2661 7.92235 20.1079 7.73536 19.9093L2.6914 14.5544H2.7104L2.7019 14.5444L2.6914 14.5319C1.39676 13.0007 0.687978 11.0595 0.691419 9.05441C0.691419 4.35995 4.49689 0.554474 9.19135 0.554474C13.8858 0.554474 17.6913 4.35995 17.6913 9.05441C17.6947 11.0595 16.9859 13.0007 15.6913 14.5319L15.6808 14.5444L15.6723 14.5544H15.6913ZM14.7198 13.7449C15.8339 12.4363 16.4443 10.773 16.4413 9.05441C16.4413 5.05044 13.1953 1.80446 9.19135 1.80446C5.18738 1.80446 1.94141 5.05044 1.94141 9.05441C1.93828 10.773 2.54874 12.4363 3.6629 13.7449L3.8169 13.9264L8.64536 19.0518C8.71548 19.1263 8.80009 19.1856 8.89398 19.2262C8.98788 19.2667 9.08908 19.2877 9.19135 19.2877C9.29363 19.2877 9.39483 19.2667 9.48873 19.2262C9.58262 19.1856 9.66723 19.1263 9.73735 19.0518L14.5658 13.9264L14.7198 13.7449Z" fill="#2F80ED"/>
</svg>
