<svg width="24" height="26" viewBox="0 0 24 26" fill="none" xmlns="http://www.w3.org/2000/svg">
<path d="M9.87891 2.37209C10.0657 1.91048 10.386 1.51517 10.7989 1.23681C11.2118 0.95846 11.6984 0.809753 12.1964 0.809753C12.6944 0.809753 13.181 0.95846 13.5939 1.23681C14.0067 1.51517 14.3271 1.91048 14.5139 2.37209C16.3623 2.88044 17.9927 3.98152 19.1548 5.50623C20.3168 7.03094 20.9462 8.89497 20.9463 10.812V16.6832L23.2363 20.1182C23.3619 20.3065 23.434 20.5253 23.445 20.7513C23.456 20.9773 23.4054 21.2021 23.2987 21.4016C23.1919 21.6012 23.033 21.768 22.8388 21.8843C22.6447 22.0006 22.4226 22.062 22.1963 22.0619H16.5276C16.3771 23.1033 15.8564 24.0556 15.061 24.7443C14.2656 25.4331 13.2486 25.8122 12.1964 25.8122C11.1442 25.8122 10.1272 25.4331 9.33179 24.7443C8.53634 24.0556 8.01568 23.1033 7.86517 22.0619H2.19647C1.97017 22.062 1.7481 22.0006 1.55396 21.8843C1.35982 21.768 1.20089 21.6012 1.09413 21.4016C0.987371 21.2021 0.936782 20.9773 0.947761 20.7513C0.958741 20.5253 1.03088 20.3065 1.15647 20.1182L3.44646 16.6832V10.812C3.44646 6.78205 6.17144 3.38708 9.87891 2.37209ZM10.4289 22.0619C10.558 22.4277 10.7974 22.7445 11.1141 22.9686C11.4307 23.1926 11.8091 23.3129 12.197 23.3129C12.5849 23.3129 12.9633 23.1926 13.28 22.9686C13.5967 22.7445 13.836 22.4277 13.9651 22.0619H10.4277H10.4289ZM12.1964 4.56207C10.5388 4.56207 8.9491 5.22055 7.77701 6.39264C6.60491 7.56473 5.94644 9.15443 5.94644 10.812V17.062C5.94649 17.3089 5.87342 17.5503 5.73644 17.7557L4.5327 19.562H19.8588L18.6551 17.7557C18.5186 17.5501 18.4459 17.3088 18.4463 17.062V10.812C18.4463 9.15443 17.7879 7.56473 16.6158 6.39264C15.4437 5.22055 13.854 4.56207 12.1964 4.56207Z" fill="#828282"/>
</svg>
