<svg width="25" height="25" viewBox="0 0 25 25" fill="none" xmlns="http://www.w3.org/2000/svg">
<path d="M12.1933 23.0537C10.1166 23.0537 8.08654 22.4379 6.35984 21.2841C4.63314 20.1304 3.28734 18.4905 2.49262 16.5719C1.69791 14.6533 1.48998 12.5421 1.89512 10.5053C2.30026 8.46856 3.30028 6.59765 4.76872 5.12921C6.23716 3.66077 8.10807 2.66075 10.1449 2.25561C12.1816 1.85046 14.2928 2.0584 16.2114 2.85311C18.13 3.64783 19.7699 4.99363 20.9237 6.72033C22.0774 8.44703 22.6932 10.4771 22.6932 12.5538C22.6932 15.3385 21.587 18.0092 19.6178 19.9783C17.6487 21.9475 14.978 23.0537 12.1933 23.0537ZM12.1933 3.55384C10.4133 3.55384 8.67322 4.08168 7.19319 5.0706C5.71316 6.05953 4.55962 7.46513 3.87843 9.10965C3.19725 10.7542 3.01902 12.5638 3.36628 14.3096C3.71355 16.0554 4.57071 17.659 5.82937 18.9177C7.08803 20.1763 8.69167 21.0335 10.4375 21.3808C12.1833 21.728 13.9929 21.5498 15.6374 20.8686C17.2819 20.1874 18.6875 19.0339 19.6765 17.5539C20.6654 16.0738 21.1932 14.3338 21.1932 12.5538C21.1932 10.1668 20.245 7.87768 18.5572 6.18986C16.8694 4.50205 14.5802 3.55384 12.1933 3.55384Z" fill="#2F80ED"/>
<path d="M15.6358 17.0545L11.4434 12.862V5.80458H12.9433V12.2395L16.6933 15.997L15.6358 17.0545Z" fill="#2F80ED"/>
</svg>
