<svg width="18" height="18" viewBox="0 0 18 18" fill="none" xmlns="http://www.w3.org/2000/svg">
<rect x="1.03523" y="1.01402" width="16.1803" height="16.1803" rx="5.39344" stroke="#E0E0E0" stroke-width="0.980626"/>
<path d="M12.5308 11.5091C12.3321 11.0384 12.0437 10.6109 11.6818 10.2503C11.3209 9.88868 10.8934 9.60036 10.4229 9.40126C10.4187 9.39915 10.4145 9.3981 10.4103 9.39599C11.0666 8.92196 11.4932 8.14981 11.4932 7.27865C11.4932 5.83548 10.3239 4.6662 8.88076 4.6662C7.43759 4.6662 6.26831 5.83548 6.26831 7.27865C6.26831 8.14981 6.69494 8.92196 7.35121 9.39705C7.347 9.39915 7.34278 9.40021 7.33857 9.40231C6.86664 9.60141 6.44317 9.88688 6.07975 10.2514C5.71812 10.6122 5.4298 11.0397 5.2307 11.5102C5.03511 11.9708 4.92962 12.4646 4.91995 12.9649C4.91967 12.9762 4.92164 12.9874 4.92575 12.9978C4.92986 13.0083 4.93602 13.0178 4.94387 13.0259C4.95173 13.0339 4.96111 13.0403 4.97148 13.0447C4.98184 13.0491 4.99297 13.0513 5.00422 13.0513H5.63626C5.68261 13.0513 5.71948 13.0144 5.72054 12.9691C5.74161 12.1559 6.06816 11.3943 6.64543 10.817C7.24271 10.2198 8.03592 9.89109 8.88076 9.89109C9.72559 9.89109 10.5188 10.2198 11.1161 10.817C11.6934 11.3943 12.0199 12.1559 12.041 12.9691C12.042 13.0155 12.0789 13.0513 12.1252 13.0513H12.7573C12.7685 13.0513 12.7797 13.0491 12.79 13.0447C12.8004 13.0403 12.8098 13.0339 12.8176 13.0259C12.8255 13.0178 12.8317 13.0083 12.8358 12.9978C12.8399 12.9874 12.8418 12.9762 12.8416 12.9649C12.831 12.4614 12.7267 11.9716 12.5308 11.5091ZM8.88076 9.09051C8.39724 9.09051 7.94217 8.90195 7.59981 8.55959C7.25746 8.21723 7.0689 7.76216 7.0689 7.27865C7.0689 6.79513 7.25746 6.34006 7.59981 5.9977C7.94217 5.65535 8.39724 5.46679 8.88076 5.46679C9.36427 5.46679 9.81934 5.65535 10.1617 5.9977C10.5041 6.34006 10.6926 6.79513 10.6926 7.27865C10.6926 7.76216 10.5041 8.21723 10.1617 8.55959C9.81934 8.90195 9.36427 9.09051 8.88076 9.09051Z" fill="#2F80ED"/>
</svg>
